<?xml version="1.0" encoding="UTF-8"?> <!-- Generator: Adobe Illustrator 16.0.3, SVG Export Plug-In . SVG Version: 6.00 Build 0) --> <svg xmlns="http://www.w3.org/2000/svg" xmlns:xlink="http://www.w3.org/1999/xlink" version="1.1" id="Capa_1" x="0px" y="0px" width="88.667px" height="69.75px" viewBox="0 0 88.667 69.75" xml:space="preserve"> <g> <g> <path fill="#FFFFFF" d="M76.535,30.348l-8.283-7.953v-9.722c-0.004-3.416-2.772-6.185-6.188-6.188H51.681l-6.089-5.844 c-0.479-0.459-1.234-0.459-1.713,0l-6.09,5.844H22.456c-3.416,0.004-6.184,2.772-6.189,6.188v4.951 c0,0.684,0.555,1.237,1.238,1.237h3.713v3.533l-8.282,7.953c-0.245,0.231-0.383,0.555-0.382,0.892v37.132 c0,0.684,0.554,1.238,1.238,1.238h61.887c0.683,0,1.237-0.555,1.237-1.238V31.239c0-0.337-0.139-0.658-0.383-0.89L76.535,30.348z M68.251,25.825l4.351,4.176h-4.351V25.825z M68.251,32.478h3.59l-3.59,2.584V32.478z M58.35,17.624v-4.951 c0-2.051,1.663-3.713,3.714-3.713c2.05,0,3.713,1.662,3.713,3.713v24.172L44.734,51.993L23.693,36.845V18.861h33.419 C57.795,18.861,58.35,18.308,58.35,17.624 M44.734,3.249l3.372,3.235h-6.743L44.734,3.249z M18.743,16.386v-3.713 c0-2.051,1.663-3.713,3.713-3.713h34.689c-0.819,1.064-1.265,2.369-1.27,3.713v3.713H18.743z M21.218,25.825v4.176h-4.35 L21.218,25.825z M21.218,32.478v2.584l-3.589-2.584H21.218z M15.03,33.655L38.966,50.89L15.03,66.116V33.655z M18.044,67.133 L41.13,52.448l2.882,2.075c0.431,0.311,1.014,0.311,1.445,0l2.882-2.075l23.086,14.685H18.044z M74.44,66.116L50.504,50.892 L74.44,33.655V66.116z"></path> <rect x="31.12" y="30.001" fill="#FFFFFF" width="24.755" height="2.475"></rect> <rect x="31.12" y="25.05" fill="#FFFFFF" width="24.755" height="2.477"></rect> <rect x="31.12" y="34.952" fill="#FFFFFF" width="24.755" height="2.475"></rect> <rect x="0.177" y="16.386" fill="#FFFFFF" width="12.377" height="2.476"></rect> <rect x="3.89" y="21.337" fill="#FFFFFF" width="13.615" height="2.475"></rect> </g> </g> </svg> 